<?xml version="1.0" encoding="UTF-8" standalone="no"?>
<!-- Created with Inkscape (http://www.inkscape.org/) -->

<svg
   width="24"
   height="24"
   viewBox="0 0 24 24"
   version="1.1"
   id="svg1"
   sodipodi:docname="star.svg"
   inkscape:version="1.4 (e7c3feb1, 2024-10-09)"
   xml:space="preserve"
   xmlns:inkscape="http://www.inkscape.org/namespaces/inkscape"
   xmlns:sodipodi="http://sodipodi.sourceforge.net/DTD/sodipodi-0.dtd"
   xmlns="http://www.w3.org/2000/svg"
   xmlns:svg="http://www.w3.org/2000/svg"><sodipodi:namedview
     id="namedview1"
     pagecolor="#171717"
     bordercolor="#781616"
     borderopacity="1"
     inkscape:showpageshadow="0"
     inkscape:pageopacity="0"
     inkscape:pagecheckerboard="0"
     inkscape:deskcolor="#1e1e1e"
     inkscape:document-units="px"
     showgrid="true"
     inkscape:zoom="15.128495"
     inkscape:cx="12.757383"
     inkscape:cy="12.889584"
     inkscape:window-width="1168"
     inkscape:window-height="743"
     inkscape:window-x="201"
     inkscape:window-y="25"
     inkscape:window-maximized="0"
     inkscape:current-layer="layer1"><inkscape:grid
       id="grid1"
       units="px"
       originx="12"
       originy="12"
       spacingx="1"
       spacingy="1"
       empcolor="#006597"
       empopacity="0.15294118"
       color="#005682"
       opacity="0.10196078"
       empspacing="5"
       enabled="true"
       visible="true" /></sodipodi:namedview><defs
     id="defs1"><clipPath
       clipPathUnits="userSpaceOnUse"
       id="clipPath7"><path
         d="m 0,0 v 24 h 11.894531 c -0.03652,-1.189922 0.878615,-3.131061 0.56836,-4.085938 C 12.025828,18.568909 8.902668,17.029646 9.2851563,15.667969 9.6406411,14.402426 12.965824,15.108591 14.029297,14.335938 15.173554,13.504591 15.672711,10.057013 17.085937,10 c 1.313454,-0.052988 1.668954,3.328903 2.732422,4.101563 0.84786,0.616009 2.949043,0.452478 4.181641,0.865234 V 0 Z"
         style="fill:#cfac46;fill-opacity:0.228992;stroke-width:2;stroke-linejoin:round"
         id="path7" /></clipPath></defs><g
     inkscape:label="main"
     inkscape:groupmode="layer"
     id="layer1"><g
       id="g1"
       inkscape:label="file"
       clip-path="url(#clipPath7)"><path
         style="fill:#5a5a5a;fill-opacity:0.3;stroke:#747474;stroke-width:2;stroke-linejoin:round"
         d="M 5,2 V 22 H 19 V 7 L 14,2 Z"
         id="path1"
         inkscape:label="paper" /><path
         style="fill:#5a5a5a;fill-opacity:0.3;stroke:#747474;stroke-width:2;stroke-linejoin:round"
         d="M 19,7 14,2 v 5 z"
         id="path2"
         inkscape:label="fold" /></g><path
       sodipodi:type="star"
       style="fill:#cfac46;fill-opacity:1;stroke-width:2;stroke-linejoin:round"
       id="path1-9"
       inkscape:flatsided="false"
       sodipodi:sides="5"
       sodipodi:cx="12"
       sodipodi:cy="12"
       sodipodi:r1="12"
       sodipodi:r2="7.2111025"
       sodipodi:arg1="-1.5707963"
       sodipodi:arg2="-0.98279372"
       inkscape:rounded="0.26670495"
       inkscape:randomized="0"
       d="m 12,0 c 1.921674,-0.07752536 2.444072,4.8695453 4,6.0000001 1.67412,1.2163266 6.694408,0.3511224 7.412678,2.2917963 0.667561,1.8036636 -3.875953,3.8292226 -4.470271,5.6583276 -0.639464,1.968048 1.734749,6.475263 0.111016,7.75808 -1.509099,1.192251 -4.839543,-2.502955 -6.762779,-2.502961 -2.069331,-6e-6 -5.622275,3.65081 -7.3440673,2.502961 C 3.3463419,20.641392 5.831528,16.332069 5.2372206,14.502961 4.5977681,12.534909 0.02771522,10.284023 0.5873219,8.2917958 1.1074207,6.4402189 5.9737944,7.4721176 7.5297289,6.341672 9.2038558,5.1253552 9.932352,0.08341436 12,0 Z"
       inkscape:transform-center-y="-0.64938873"
       transform="matrix(0.56670793,0,0,0.56670793,10.199505,11.199505)"
       inkscape:label="star" /></g></svg>
